<svg width="21" height="21" viewBox="0 0 21 21" fill="none" xmlns="http://www.w3.org/2000/svg">
<path d="M3 0C1.34531 0 0 1.34531 0 3V18C0 19.6547 1.34531 21 3 21H7.60312V14.1656H5.12813V10.5H7.60312V8.92031C7.60312 4.8375 9.45 2.94375 13.4625 2.94375C14.2219 2.94375 15.5344 3.09375 16.0734 3.24375V6.5625C15.7922 6.53438 15.3 6.51562 14.6859 6.51562C12.7172 6.51562 11.9578 7.26094 11.9578 9.19687V10.5H15.8766L15.2016 14.1656H11.9531V21H18C19.6547 21 21 19.6547 21 18V3C21 1.34531 19.6547 0 18 0H3Z" fill="black"/>
</svg>
