

<svg xmlns="http://www.w3.org/2000/svg" class="icon icon-account"
	 viewBox="0 0 18 19" fill="none">

	<path fill="currentColor" fill-rule="evenodd" d="M18,18c0-0.1-2.1-5.6-8.9-5.7c0,0,0,0,0,0c0,0,0,0,0,0c0,0,0,0,0,0c0,0,0,0,0,0C2.2,12.4,0.1,17.9,0,18
		c-0.1,0.4,0,0.8,0.4,1C0.6,19,0.6,19,0.7,19c0.3,0,0.6-0.2,0.7-0.5c0.1-0.2,1.8-4.7,7.6-4.7c5.8,0,7.5,4.5,7.6,4.7
		c0.1,0.3,0.4,0.5,0.7,0.5c0.1,0,0.2,0,0.3,0C17.9,18.8,18.1,18.4,18,18z"/>
	<path fill="currentColor" fill-rule="evenodd" d="M8.9,10.9c2.9,0,5.2-2.4,5.2-5.4S11.8,0,8.9,0C6.1,0,3.7,2.4,3.7,5.4S6.1,10.9,8.9,10.9z M8.9,1.5c2.1,0,3.8,1.8,3.8,3.9
		S11,9.3,8.9,9.3S5.2,7.6,5.2,5.4S6.9,1.5,8.9,1.5z"/>

</svg>

