<svg width="21" height="21" viewBox="0 0 21 21" fill="none" xmlns="http://www.w3.org/2000/svg">
<path d="M9.1125 8.42344C8.83949 8.60595 8.60511 8.84046 8.42273 9.11355C8.24035 9.38665 8.11355 9.693 8.04957 10.0151C7.92034 10.6656 8.05483 11.3408 8.42344 11.8922C8.79205 12.4435 9.36459 12.8259 10.0151 12.9551C10.6656 13.0843 11.3408 12.9499 11.8922 12.5812C12.4435 12.2126 12.8259 11.6401 12.9551 10.9896C13.0843 10.3391 12.9499 9.66386 12.5812 9.1125C12.2126 8.56114 11.6401 8.17879 10.9896 8.04957C10.3391 7.92034 9.66386 8.05483 9.1125 8.42344ZM15.7828 5.21719C15.5391 4.97344 15.2437 4.78125 14.9203 4.65469C14.0719 4.32188 12.2203 4.33594 11.025 4.35C10.8328 4.35 10.6547 4.35469 10.5 4.35469C10.3453 4.35469 10.1625 4.35469 9.96563 4.35C8.77031 4.33594 6.92812 4.31719 6.07969 4.65469C5.75625 4.78125 5.46563 4.97344 5.21719 5.21719C4.96875 5.46094 4.78125 5.75625 4.65469 6.07969C4.32188 6.92812 4.34063 8.78437 4.35 9.97969C4.35 10.1719 4.35469 10.35 4.35469 10.5C4.35469 10.65 4.35469 10.8281 4.35 11.0203C4.34063 12.2156 4.32188 14.0719 4.65469 14.9203C4.78125 15.2437 4.97344 15.5344 5.21719 15.7828C5.46094 16.0313 5.75625 16.2188 6.07969 16.3453C6.92812 16.6781 8.77969 16.6641 9.975 16.65C10.1672 16.65 10.3453 16.6453 10.5 16.6453C10.6547 16.6453 10.8375 16.6453 11.0344 16.65C12.2297 16.6641 14.0719 16.6828 14.9203 16.3453C15.2437 16.2188 15.5344 16.0266 15.7828 15.7828C16.0313 15.5391 16.2188 15.2437 16.3453 14.9203C16.6828 14.0766 16.6641 12.2297 16.65 11.0297C16.65 10.8328 16.6453 10.65 16.6453 10.4953C16.6453 10.3406 16.6453 10.1625 16.65 9.96094C16.6641 8.76562 16.6828 6.91875 16.3453 6.07031C16.2188 5.74687 16.0266 5.45625 15.7828 5.20781V5.21719ZM12.6375 7.30313C13.4854 7.87003 14.0733 8.75052 14.272 9.75091C14.4706 10.7513 14.2638 11.7896 13.6969 12.6375C13.4162 13.0573 13.0555 13.4177 12.6355 13.6982C12.2156 13.9786 11.7444 14.1736 11.2491 14.272C10.2487 14.4706 9.21036 14.2638 8.3625 13.6969C7.51464 13.1306 6.92645 12.2507 6.72734 11.2507C6.52823 10.2508 6.7345 9.21271 7.30078 8.36484C7.86706 7.51698 8.74696 6.9288 9.74691 6.72968C10.7469 6.53057 11.7849 6.73685 12.6328 7.30313H12.6375ZM14.0062 7.24219C13.8609 7.14375 13.7438 7.00312 13.6734 6.83906C13.6031 6.675 13.5891 6.49688 13.6219 6.31875C13.6547 6.14063 13.7437 5.98594 13.8656 5.85938C13.9875 5.73281 14.1516 5.64844 14.325 5.61563C14.4984 5.58281 14.6813 5.59687 14.8453 5.66719C15.0094 5.7375 15.15 5.85 15.2484 5.99531C15.3469 6.14062 15.3984 6.31406 15.3984 6.49219C15.3984 6.60938 15.375 6.72656 15.3328 6.83438C15.2906 6.94219 15.2203 7.04063 15.1406 7.125C15.0609 7.20937 14.9578 7.275 14.85 7.32187C14.7422 7.36875 14.625 7.39219 14.5078 7.39219C14.3297 7.39219 14.1562 7.34062 14.0109 7.24219H14.0062ZM21 3C21 1.34531 19.6547 0 18 0H3C1.34531 0 0 1.34531 0 3V18C0 19.6547 1.34531 21 3 21H18C19.6547 21 21 19.6547 21 18V3ZM16.7344 16.7344C15.8578 17.6109 14.7938 17.8875 13.5938 17.9484C12.3563 18.0187 8.64375 18.0187 7.40625 17.9484C6.20625 17.8875 5.14219 17.6109 4.26562 16.7344C3.38906 15.8578 3.1125 14.7938 3.05625 13.5938C2.98594 12.3563 2.98594 8.64375 3.05625 7.40625C3.11719 6.20625 3.38906 5.14219 4.26562 4.26562C5.14219 3.38906 6.21094 3.1125 7.40625 3.05625C8.64375 2.98594 12.3563 2.98594 13.5938 3.05625C14.7938 3.11719 15.8578 3.38906 16.7344 4.26562C17.6109 5.14219 17.8875 6.20625 17.9437 7.40625C18.0141 8.63906 18.0141 12.3469 17.9437 13.5891C17.8828 14.7891 17.6109 15.8531 16.7344 16.7297V16.7344Z" fill="black"/>
</svg>
