<svg xmlns="http://www.w3.org/2000/svg" xmlns:xlink="http://www.w3.org/1999/xlink"><symbol viewBox="0 0 10.6 20" fill="currentColor" id="facebook"><path fill-rule="evenodd" d="M6.8 10.9V20H3.1v-9.1H0V7.3h3.1V4.7c0-3 2-4.7 4.7-4.7.9 0 1.6 0 2.2.1h.6v3.3h-2c-1.5 0-1.8.6-1.8 1.7v2.2h3.6l-.5 3.6H6.8z"/></symbol><symbol class="bicon bicon-instagram" viewBox="0 0 20 20" fill="currentColor" id="instagram"><path fill-rule="evenodd" d="M13.23 3.492c-.84-.037-1.096-.046-3.23-.046-2.144 0-2.39.01-3.238.055-.776.027-1.195.164-1.487.273a2.4 2.4 0 0 0-.912.593 2.5 2.5 0 0 0-.602.922c-.11.282-.238.702-.274 1.486-.046.84-.046 1.095-.046 3.23s.01 2.39.046 3.229c.004.51.097 1.016.274 1.495.145.365.319.639.602.913.282.282.538.456.92.602.474.176.974.268 1.479.273.848.046 1.103.046 3.238.046s2.39-.01 3.23-.046c.784-.036 1.203-.164 1.486-.273.374-.146.648-.329.921-.602.283-.283.447-.548.602-.922.177-.476.27-.979.274-1.486.037-.84.046-1.095.046-3.23s-.01-2.39-.055-3.229c-.027-.784-.164-1.204-.274-1.495a2.4 2.4 0 0 0-.593-.913 2.6 2.6 0 0 0-.92-.602c-.284-.11-.703-.237-1.488-.273ZM6.697 2.05c.857-.036 1.131-.045 3.302-.045a63 63 0 0 1 3.302.045c.664.014 1.321.14 1.943.374a4 4 0 0 1 1.414.922c.41.397.728.88.93 1.414.23.622.354 1.279.365 1.942C18 7.56 18 7.824 18 10.005c0 2.17-.01 2.444-.046 3.292-.036.858-.173 1.442-.374 1.943-.2.53-.474.976-.92 1.423a3.9 3.9 0 0 1-1.415.922c-.51.191-1.095.337-1.943.374-.857.036-1.122.045-3.302.045-2.171 0-2.445-.009-3.302-.055-.849-.027-1.432-.164-1.943-.364a4.15 4.15 0 0 1-1.414-.922 4.1 4.1 0 0 1-.93-1.423c-.183-.51-.329-1.085-.365-1.943C2.009 12.45 2 12.167 2 10.004c0-2.161 0-2.435.055-3.302.027-.848.164-1.432.365-1.942a4.4 4.4 0 0 1 .92-1.414 4.2 4.2 0 0 1 1.415-.93c.51-.183 1.094-.33 1.943-.366Zm.427 4.806a4.105 4.105 0 1 1 5.805 5.805 4.105 4.105 0 0 1-5.805-5.805m1.882 5.371a2.668 2.668 0 1 0 2.042-4.93 2.668 2.668 0 0 0-2.042 4.93m5.922-5.942a.958.958 0 1 1-1.355-1.355.958.958 0 0 1 1.355 1.355" clip-rule="evenodd"/></symbol><symbol class="cicon cicon-tiktok" viewBox="0 0 20 20" fill="currentColor" id="tiktok"><path d="M10.511 1.705h2.74s-.157 3.51 3.795 3.768v2.711s-2.114.129-3.796-1.158l.028 5.606A5.073 5.073 0 1 1 8.213 7.56h.708v2.785a2.298 2.298 0 1 0 1.618 2.205z"/></symbol><symbol class="dicon dicon-tumblr" viewBox="0 0 20 20" fill="currentColor" id="tumblr"><path fill-rule="evenodd" d="M11.997 18c-2.26 0-3.954-1.235-3.954-4.198V9.061H6V6.489C8.26 5.867 9.201 3.787 9.314 2h2.344v4.068h2.73V9.06h-2.73v4.128c0 1.235.584 1.667 1.516 1.667h1.318V18z" clip-rule="evenodd"/></symbol><symbol class="eicon eicon-twitter" viewBox="0 0 20 20" fill="currentColor" id="twitter"><path fill-rule="evenodd" d="M7.273 2.8 10.8 7.822 15.218 2.8h1.768l-5.4 6.139 5.799 8.254h-4.658l-3.73-5.31-4.671 5.31H2.558l5.654-6.427L2.615 2.8zm6.242 13.125L5.07 4.109h1.405l8.446 11.816z" clip-rule="evenodd"/></symbol><symbol class="ficon ficon-youtube" viewBox="0 0 20 20" fill="currentColor" id="youtube"><path d="M18.16 5.87c.34 1.309.34 4.08.34 4.08s0 2.771-.34 4.08a2.13 2.13 0 0 1-1.53 1.53c-1.309.34-6.63.34-6.63.34s-5.321 0-6.63-.34a2.13 2.13 0 0 1-1.53-1.53c-.34-1.309-.34-4.08-.34-4.08s0-2.771.34-4.08a2.17 2.17 0 0 1 1.53-1.53C4.679 4 10 4 10 4s5.321 0 6.63.34a2.17 2.17 0 0 1 1.53 1.53M8.3 12.5l4.42-2.55L8.3 7.4z"/></symbol></svg>
