<svg xmlns="http://www.w3.org/2000/svg" xmlns:xlink="http://www.w3.org/1999/xlink"><symbol fill="currentColor" viewBox="0 0 21 21" id="facebook"><path d="M3 0C1.345 0 0 1.345 0 3v15c0 1.655 1.345 3 3 3h4.603v-6.834H5.128V10.5h2.475V8.92c0-4.082 1.847-5.976 5.86-5.976.759 0 2.071.15 2.61.3v3.318a15.812 15.812 0 0 0-1.387-.046c-1.969 0-2.728.745-2.728 2.68V10.5h3.919l-.675 3.666h-3.249V21H18c1.655 0 3-1.345 3-3V3c0-1.655-1.345-3-3-3H3Z"/></symbol><symbol fill="currentColor" viewBox="0 0 21 21" id="instagram"><path d="M9.113 8.423a2.5 2.5 0 1 0 2.78 4.158 2.5 2.5 0 0 0-2.78-4.158Zm6.67-3.206a2.52 2.52 0 0 0-.863-.562c-.848-.333-2.7-.32-3.895-.305-.192 0-.37.005-.525.005-.155 0-.338 0-.534-.005-1.196-.014-3.038-.033-3.886.305a2.566 2.566 0 0 0-.863.562c-.248.244-.436.54-.562.863-.333.848-.314 2.704-.305 3.9 0 .192.005.37.005.52 0 .15 0 .328-.005.52-.01 1.196-.028 3.052.305 3.9.126.324.318.614.562.863.244.248.54.436.863.562.848.333 2.7.32 3.895.305.192 0 .37-.005.525-.005.155 0 .338 0 .534.005 1.196.014 3.038.033 3.886-.305.324-.126.614-.318.863-.562.248-.244.436-.54.562-.863.338-.843.32-2.69.305-3.89 0-.197-.005-.38-.005-.535 0-.154 0-.332.005-.534.014-1.195.033-3.042-.305-3.89a2.565 2.565 0 0 0-.562-.863v.01Zm-3.146 2.086a3.846 3.846 0 1 1-2.89-.573c1-.2 2.038.007 2.886.573h.005Zm1.37-.06a.896.896 0 0 1-.14-1.383.9.9 0 0 1 1.467.975.886.886 0 0 1-.825.558.885.885 0 0 1-.498-.15h-.005ZM21 3c0-1.655-1.345-3-3-3H3C1.345 0 0 1.345 0 3v15c0 1.655 1.345 3 3 3h15c1.655 0 3-1.345 3-3V3Zm-4.266 13.734c-.876.877-1.94 1.153-3.14 1.214-1.238.07-4.95.07-6.188 0-1.2-.06-2.264-.337-3.14-1.214-.877-.876-1.154-1.94-1.21-3.14-.07-1.238-.07-4.95 0-6.188.061-1.2.333-2.264 1.21-3.14.876-.877 1.945-1.154 3.14-1.21 1.238-.07 4.95-.07 6.188 0 1.2.061 2.264.333 3.14 1.21.877.876 1.153 1.94 1.21 3.14.07 1.233.07 4.94 0 6.183-.061 1.2-.333 2.264-1.21 3.14v.005Z"/></symbol><symbol fill="currentColor" viewBox="0 0 21 21" id="linkedin"><path d="M19.5 0H1.495C.67 0 0 .68 0 1.514v17.972C0 20.32.67 21 1.495 21H19.5c.825 0 1.5-.68 1.5-1.514V1.514A1.51 1.51 0 0 0 19.5 0ZM6.347 18H3.234V7.978h3.118V18h-.005ZM4.79 6.61a1.805 1.805 0 0 1 0-3.61c.993 0 1.804.81 1.804 1.805 0 .998-.806 1.804-1.804 1.804ZM18.014 18h-3.112v-4.875c0-1.162-.024-2.658-1.618-2.658-1.622 0-1.87 1.266-1.87 2.574V18H8.302V7.978h2.986v1.369h.042c.417-.788 1.434-1.617 2.948-1.617 3.15 0 3.736 2.076 3.736 4.776V18Z"/></symbol><symbol fill="currentColor" viewBox="0 0 36 36" id="tumblr"><path fill-rule="evenodd" clip-rule="evenodd" d="M7.189 0H28.81C32.764 0 36 3.236 36 7.189V28.81C36 32.764 32.764 36 28.811 36H7.19C3.236 36 0 32.764 0 28.811V7.19C0 3.236 3.236 0 7.189 0Zm13.219 29.212H24.2v-4.468h-2.004c-1.412 0-2.299-.607-2.299-2.364v-5.864h4.139V12.28h-4.139V6.498h-3.547c-.165 2.546-1.593 5.485-5.01 6.372v3.646h3.105v6.734c0 4.204 2.546 5.962 5.962 5.962Z"/></symbol><symbol fill="currentColor" viewBox="0 0 21 21" id="youtube"><path d="M13.219 10.51 8.756 7.972v5.072l4.463-2.536ZM18 0H3C1.345 0 0 1.345 0 3v15c0 1.655 1.345 3 3 3h15c1.655 0 3-1.345 3-3V3c0-1.655-1.345-3-3-3Zm.675 6.38c.356 1.34.356 4.134.356 4.134s0 2.794-.356 4.13a2.109 2.109 0 0 1-1.51 1.495c-1.326.361-6.665.361-6.665.361s-5.34 0-6.666-.356a2.109 2.109 0 0 1-1.509-1.496c-.356-1.34-.356-4.134-.356-4.134s0-2.798.356-4.134a2.14 2.14 0 0 1 1.51-1.52C5.16 4.5 10.5 4.5 10.5 4.5s5.34 0 6.666.36a2.14 2.14 0 0 1 1.509 1.52Z"/></symbol></svg>