<svg width="36" height="36" viewBox="0 0 36 36" fill="none" xmlns="http://www.w3.org/2000/svg">
<path fill-rule="evenodd" clip-rule="evenodd" d="M7.1888 0H28.8112C32.764 0 36 3.236 36 7.1888V28.8112C36 32.764 32.764 36 28.8112 36H7.1888C3.236 36 0 32.764 0 28.8112V7.1888C0 3.236 3.236 0 7.1888 0ZM20.4077 29.2116H24.2013V24.7444H22.1973C20.7853 24.7444 19.8981 24.1368 19.8981 22.3796V16.5164H24.0365V12.2792H19.8981V6.498H16.3509C16.1865 9.0436 14.7577 11.9832 11.3417 12.8704V16.5164H14.4457V23.2496C14.4457 27.454 16.9917 29.2116 20.4077 29.2116Z" fill="black"/>
</svg>
