<svg width="21" height="21" viewBox="0 0 21 21" fill="none" xmlns="http://www.w3.org/2000/svg">
<path d="M13.2188 10.5094L8.75625 7.97344V13.0453L13.2188 10.5094ZM18 0H3C1.34531 0 0 1.34531 0 3V18C0 19.6547 1.34531 21 3 21H18C19.6547 21 21 19.6547 21 18V3C21 1.34531 19.6547 0 18 0ZM18.675 6.37969C19.0312 7.72031 19.0312 10.5141 19.0312 10.5141C19.0312 10.5141 19.0312 13.3078 18.675 14.6437C18.4781 15.3844 17.9016 15.9422 17.1656 16.1391C15.8391 16.5 10.5 16.5 10.5 16.5C10.5 16.5 5.16094 16.5 3.83438 16.1437C3.09844 15.9469 2.52187 15.3891 2.325 14.6484C1.96875 13.3078 1.96875 10.5141 1.96875 10.5141C1.96875 10.5141 1.96875 7.71563 2.325 6.37969C2.52187 5.63906 3.09844 5.05781 3.83438 4.86094C5.16094 4.5 10.5 4.5 10.5 4.5C10.5 4.5 15.8391 4.5 17.1656 4.86094C17.9016 5.05781 18.4781 5.63906 18.675 6.37969Z" fill="black"/>
</svg>
